<svg xmlns="http://www.w3.org/2000/svg" viewBox="0 0 180 180" width="180" height="180">
  <defs>
    <linearGradient id="appleGrad" x1="0%" y1="0%" x2="100%" y2="100%">
      <stop offset="0%" style="stop-color:#667eea;stop-opacity:1" />
      <stop offset="50%" style="stop-color:#764ba2;stop-opacity:1" />
      <stop offset="100%" style="stop-color:#4facfe;stop-opacity:1" />
    </linearGradient>
  </defs>

  <!-- Rounded background for iOS -->
  <rect width="180" height="180" rx="40" fill="url(#appleGrad)"/>

  <!-- Stylized "H" letter -->
  <g transform="translate(90, 90)">
    <!-- Left vertical bar -->
    <rect x="-42" y="-50" width="16" height="100" rx="5" fill="white" opacity="0.95"/>

    <!-- Right vertical bar -->
    <rect x="26" y="-50" width="16" height="100" rx="5" fill="white" opacity="0.95"/>

    <!-- Horizontal connection with cloud shape -->
    <path d="M -26 -5 L -14 -5 Q -8 -14 0 -14 Q 8 -14 14 -5 L 26 -5 L 26 5 L 14 5 Q 8 14 0 14 Q -8 14 -14 5 L -26 5 Z"
          fill="white" opacity="0.95"/>

    <!-- Server dots -->
    <circle cx="-34" cy="-27" r="3.5" fill="white" opacity="0.7"/>
    <circle cx="-34" cy="0" r="3.5" fill="white" opacity="0.7"/>
    <circle cx="-34" cy="27" r="3.5" fill="white" opacity="0.7"/>

    <circle cx="34" cy="-27" r="3.5" fill="white" opacity="0.7"/>
    <circle cx="34" cy="0" r="3.5" fill="white" opacity="0.7"/>
    <circle cx="34" cy="27" r="3.5" fill="white" opacity="0.7"/>
  </g>
</svg>
